<mxfile host="app.diagrams.net" modified="2024-04-23T05:07:51.053Z" agent="Mozilla/5.0 (Windows NT 10.0; Win64; x64) AppleWebKit/537.36 (KHTML, like Gecko) Chrome/123.0.0.0 Safari/537.36" version="24.2.8" etag="kKXx5MyTArlF7mcmSI4J" type="github">
  <diagram name="Page-1" id="C0S03kv1xg1Y0qRBt83g">
    <mxGraphModel>
      <root>
        <mxCell id="0" />
        <mxCell id="1" parent="0" />
      </root>
    </mxGraphModel>
  </diagram>
</mxfile>
